<mxfile host="app.diagrams.net" agent="Mozilla/5.0 (X11; Linux x86_64; rv:134.0) Gecko/20100101 Firefox/134.0" version="26.1.0">
  <diagram name="PÃ¡gina-1" id="wDI10xxrmK4VKfK1yk1z">
    <mxGraphModel dx="2514" dy="881" grid="1" gridSize="10" guides="1" tooltips="1" connect="1" arrows="1" fold="1" page="1" pageScale="1" pageWidth="827" pageHeight="1169" math="0" shadow="0">
      <root>
        <mxCell id="0" />
        <mxCell id="1" parent="0" />
        <mxCell id="OVtX0qKYc-KQCvb2mehi-5" value="" style="edgeStyle=orthogonalEdgeStyle;rounded=0;orthogonalLoop=1;jettySize=auto;html=1;" edge="1" parent="1" source="OVtX0qKYc-KQCvb2mehi-3" target="OVtX0qKYc-KQCvb2mehi-4">
          <mxGeometry relative="1" as="geometry" />
        </mxCell>
        <mxCell id="OVtX0qKYc-KQCvb2mehi-3" value="" style="ellipse;shape=cloud;whiteSpace=wrap;html=1;" vertex="1" parent="1">
          <mxGeometry x="354" y="20" width="156" height="80" as="geometry" />
        </mxCell>
        <mxCell id="OVtX0qKYc-KQCvb2mehi-32" style="edgeStyle=orthogonalEdgeStyle;rounded=0;orthogonalLoop=1;jettySize=auto;html=1;" edge="1" parent="1" source="OVtX0qKYc-KQCvb2mehi-4" target="OVtX0qKYc-KQCvb2mehi-7">
          <mxGeometry relative="1" as="geometry" />
        </mxCell>
        <mxCell id="OVtX0qKYc-KQCvb2mehi-33" style="edgeStyle=orthogonalEdgeStyle;rounded=0;orthogonalLoop=1;jettySize=auto;html=1;entryX=0.5;entryY=0;entryDx=0;entryDy=0;" edge="1" parent="1" source="OVtX0qKYc-KQCvb2mehi-4" target="OVtX0qKYc-KQCvb2mehi-8">
          <mxGeometry relative="1" as="geometry" />
        </mxCell>
        <mxCell id="OVtX0qKYc-KQCvb2mehi-4" value="" style="fillColor=#a20025;aspect=fixed;sketch=0;pointerEvents=1;shadow=0;dashed=0;html=1;strokeColor=#6F0000;labelPosition=center;verticalLabelPosition=bottom;outlineConnect=0;verticalAlign=top;align=center;shape=mxgraph.openstack.nova_server;fontColor=#ffffff;" vertex="1" parent="1">
          <mxGeometry x="392" y="150" width="80" height="80" as="geometry" />
        </mxCell>
        <mxCell id="OVtX0qKYc-KQCvb2mehi-6" value="" style="fillColor=#3F51B5;aspect=fixed;sketch=0;pointerEvents=1;shadow=0;dashed=0;html=1;strokeColor=#3F51B5;labelPosition=center;verticalLabelPosition=bottom;outlineConnect=0;verticalAlign=top;align=center;shape=mxgraph.openstack.nova_server;fontColor=#ffffff;" vertex="1" parent="1">
          <mxGeometry x="274" y="370" width="80" height="80" as="geometry" />
        </mxCell>
        <mxCell id="OVtX0qKYc-KQCvb2mehi-14" style="edgeStyle=orthogonalEdgeStyle;rounded=0;orthogonalLoop=1;jettySize=auto;html=1;" edge="1" parent="1" source="OVtX0qKYc-KQCvb2mehi-7" target="OVtX0qKYc-KQCvb2mehi-13">
          <mxGeometry relative="1" as="geometry">
            <Array as="points">
              <mxPoint x="225" y="340" />
              <mxPoint x="-20" y="340" />
            </Array>
          </mxGeometry>
        </mxCell>
        <mxCell id="OVtX0qKYc-KQCvb2mehi-17" style="edgeStyle=orthogonalEdgeStyle;rounded=0;orthogonalLoop=1;jettySize=auto;html=1;" edge="1" parent="1" source="OVtX0qKYc-KQCvb2mehi-7" target="OVtX0qKYc-KQCvb2mehi-9">
          <mxGeometry relative="1" as="geometry">
            <Array as="points">
              <mxPoint x="225" y="340" />
              <mxPoint x="140" y="340" />
            </Array>
          </mxGeometry>
        </mxCell>
        <mxCell id="OVtX0qKYc-KQCvb2mehi-18" style="edgeStyle=orthogonalEdgeStyle;rounded=0;orthogonalLoop=1;jettySize=auto;html=1;" edge="1" parent="1" source="OVtX0qKYc-KQCvb2mehi-7" target="OVtX0qKYc-KQCvb2mehi-6">
          <mxGeometry relative="1" as="geometry">
            <Array as="points">
              <mxPoint x="225" y="340" />
              <mxPoint x="314" y="340" />
            </Array>
          </mxGeometry>
        </mxCell>
        <mxCell id="OVtX0qKYc-KQCvb2mehi-19" style="edgeStyle=orthogonalEdgeStyle;rounded=0;orthogonalLoop=1;jettySize=auto;html=1;entryX=0.5;entryY=0;entryDx=0;entryDy=0;" edge="1" parent="1" source="OVtX0qKYc-KQCvb2mehi-7" target="OVtX0qKYc-KQCvb2mehi-10">
          <mxGeometry relative="1" as="geometry">
            <Array as="points">
              <mxPoint x="225" y="340" />
              <mxPoint x="-196" y="340" />
            </Array>
          </mxGeometry>
        </mxCell>
        <mxCell id="OVtX0qKYc-KQCvb2mehi-7" value="SWITCH 1" style="rounded=0;whiteSpace=wrap;html=1;fillColor=#647687;fontColor=#ffffff;strokeColor=#314354;" vertex="1" parent="1">
          <mxGeometry x="160" y="280" width="130" height="40" as="geometry" />
        </mxCell>
        <mxCell id="OVtX0qKYc-KQCvb2mehi-28" style="edgeStyle=orthogonalEdgeStyle;rounded=0;orthogonalLoop=1;jettySize=auto;html=1;" edge="1" parent="1" source="OVtX0qKYc-KQCvb2mehi-8" target="OVtX0qKYc-KQCvb2mehi-20">
          <mxGeometry relative="1" as="geometry">
            <Array as="points">
              <mxPoint x="625" y="340" />
              <mxPoint x="540" y="340" />
            </Array>
          </mxGeometry>
        </mxCell>
        <mxCell id="OVtX0qKYc-KQCvb2mehi-29" style="edgeStyle=orthogonalEdgeStyle;rounded=0;orthogonalLoop=1;jettySize=auto;html=1;" edge="1" parent="1" source="OVtX0qKYc-KQCvb2mehi-8" target="OVtX0qKYc-KQCvb2mehi-25">
          <mxGeometry relative="1" as="geometry">
            <Array as="points">
              <mxPoint x="625" y="340" />
              <mxPoint x="710" y="340" />
            </Array>
          </mxGeometry>
        </mxCell>
        <mxCell id="OVtX0qKYc-KQCvb2mehi-31" style="edgeStyle=orthogonalEdgeStyle;rounded=0;orthogonalLoop=1;jettySize=auto;html=1;" edge="1" parent="1" source="OVtX0qKYc-KQCvb2mehi-8" target="OVtX0qKYc-KQCvb2mehi-26">
          <mxGeometry relative="1" as="geometry">
            <Array as="points">
              <mxPoint x="625" y="340" />
              <mxPoint x="1074" y="340" />
            </Array>
          </mxGeometry>
        </mxCell>
        <mxCell id="OVtX0qKYc-KQCvb2mehi-8" value="&lt;div&gt;SWITCH 2&lt;/div&gt;" style="rounded=0;whiteSpace=wrap;html=1;fillColor=#647687;fontColor=#ffffff;strokeColor=#314354;" vertex="1" parent="1">
          <mxGeometry x="560" y="280" width="130" height="40" as="geometry" />
        </mxCell>
        <mxCell id="OVtX0qKYc-KQCvb2mehi-9" value="" style="fillColor=#60a917;aspect=fixed;sketch=0;pointerEvents=1;shadow=0;dashed=0;html=1;strokeColor=#2D7600;labelPosition=center;verticalLabelPosition=bottom;outlineConnect=0;verticalAlign=top;align=center;shape=mxgraph.openstack.nova_server;fontColor=#ffffff;" vertex="1" parent="1">
          <mxGeometry x="100" y="370" width="80" height="80" as="geometry" />
        </mxCell>
        <mxCell id="OVtX0qKYc-KQCvb2mehi-10" value="" style="shape=image;html=1;verticalAlign=top;verticalLabelPosition=bottom;labelBackgroundColor=#ffffff;imageAspect=0;aspect=fixed;image=https://cdn2.iconfinder.com/data/icons/browsers/Firefox.png" vertex="1" parent="1">
          <mxGeometry x="-230" y="370" width="68" height="68" as="geometry" />
        </mxCell>
        <mxCell id="OVtX0qKYc-KQCvb2mehi-13" value="" style="fontColor=#0066CC;verticalAlign=top;verticalLabelPosition=bottom;labelPosition=center;align=center;html=1;outlineConnect=0;fillColor=#CCCCCC;strokeColor=#6881B3;gradientColor=none;gradientDirection=north;strokeWidth=2;shape=mxgraph.networks.pc;" vertex="1" parent="1">
          <mxGeometry x="-70" y="380" width="80" height="70" as="geometry" />
        </mxCell>
        <mxCell id="OVtX0qKYc-KQCvb2mehi-20" value="" style="fillColor=#3F51B5;aspect=fixed;sketch=0;pointerEvents=1;shadow=0;dashed=0;html=1;strokeColor=#3F51B5;labelPosition=center;verticalLabelPosition=bottom;outlineConnect=0;verticalAlign=top;align=center;shape=mxgraph.openstack.nova_server;fontColor=#ffffff;" vertex="1" parent="1">
          <mxGeometry x="500" y="364" width="80" height="80" as="geometry" />
        </mxCell>
        <mxCell id="OVtX0qKYc-KQCvb2mehi-25" value="" style="fillColor=#60a917;aspect=fixed;sketch=0;pointerEvents=1;shadow=0;dashed=0;html=1;strokeColor=#2D7600;labelPosition=center;verticalLabelPosition=bottom;outlineConnect=0;verticalAlign=top;align=center;shape=mxgraph.openstack.nova_server;fontColor=#ffffff;" vertex="1" parent="1">
          <mxGeometry x="670" y="364" width="80" height="80" as="geometry" />
        </mxCell>
        <mxCell id="OVtX0qKYc-KQCvb2mehi-26" value="" style="shape=image;html=1;verticalAlign=top;verticalLabelPosition=bottom;labelBackgroundColor=#ffffff;imageAspect=0;aspect=fixed;image=https://cdn2.iconfinder.com/data/icons/browsers/Firefox.png" vertex="1" parent="1">
          <mxGeometry x="1040" y="366" width="68" height="68" as="geometry" />
        </mxCell>
        <mxCell id="OVtX0qKYc-KQCvb2mehi-27" value="" style="fontColor=#0066CC;verticalAlign=top;verticalLabelPosition=bottom;labelPosition=center;align=center;html=1;outlineConnect=0;fillColor=#CCCCCC;strokeColor=#6881B3;gradientColor=none;gradientDirection=north;strokeWidth=2;shape=mxgraph.networks.pc;" vertex="1" parent="1">
          <mxGeometry x="840" y="368" width="80" height="70" as="geometry" />
        </mxCell>
        <mxCell id="OVtX0qKYc-KQCvb2mehi-30" style="edgeStyle=orthogonalEdgeStyle;rounded=0;orthogonalLoop=1;jettySize=auto;html=1;entryX=0.5;entryY=0.07;entryDx=0;entryDy=0;entryPerimeter=0;" edge="1" parent="1" source="OVtX0qKYc-KQCvb2mehi-8" target="OVtX0qKYc-KQCvb2mehi-27">
          <mxGeometry relative="1" as="geometry">
            <Array as="points">
              <mxPoint x="625" y="340" />
              <mxPoint x="880" y="340" />
            </Array>
          </mxGeometry>
        </mxCell>
        <mxCell id="OVtX0qKYc-KQCvb2mehi-34" value="&lt;div&gt;Ubuntu Server&lt;/div&gt;" style="text;html=1;align=center;verticalAlign=middle;resizable=0;points=[];autosize=1;strokeColor=none;fillColor=none;" vertex="1" parent="1">
          <mxGeometry x="382" y="230" width="100" height="30" as="geometry" />
        </mxCell>
        <mxCell id="OVtX0qKYc-KQCvb2mehi-36" value="&lt;div&gt;VPC&lt;/div&gt;" style="text;html=1;align=center;verticalAlign=middle;resizable=0;points=[];autosize=1;strokeColor=none;fillColor=none;" vertex="1" parent="1">
          <mxGeometry x="-50" y="468" width="50" height="30" as="geometry" />
        </mxCell>
        <mxCell id="OVtX0qKYc-KQCvb2mehi-37" value="&lt;div&gt;VPC&lt;/div&gt;" style="text;html=1;align=center;verticalAlign=middle;resizable=0;points=[];autosize=1;strokeColor=none;fillColor=none;" vertex="1" parent="1">
          <mxGeometry x="860" y="460" width="50" height="30" as="geometry" />
        </mxCell>
        <mxCell id="OVtX0qKYc-KQCvb2mehi-38" value="&lt;div&gt;Ubuntu Desktop&lt;br&gt;&lt;/div&gt;" style="text;html=1;align=center;verticalAlign=middle;resizable=0;points=[];autosize=1;strokeColor=none;fillColor=none;" vertex="1" parent="1">
          <mxGeometry x="85" y="460" width="110" height="30" as="geometry" />
        </mxCell>
        <mxCell id="OVtX0qKYc-KQCvb2mehi-39" value="&lt;div&gt;Ubuntu Desktop&lt;br&gt;&lt;/div&gt;" style="text;html=1;align=center;verticalAlign=middle;resizable=0;points=[];autosize=1;strokeColor=none;fillColor=none;" vertex="1" parent="1">
          <mxGeometry x="655" y="460" width="110" height="30" as="geometry" />
        </mxCell>
        <mxCell id="OVtX0qKYc-KQCvb2mehi-40" value="Windows10" style="text;html=1;align=center;verticalAlign=middle;resizable=0;points=[];autosize=1;strokeColor=none;fillColor=none;" vertex="1" parent="1">
          <mxGeometry x="269" y="460" width="90" height="30" as="geometry" />
        </mxCell>
        <mxCell id="OVtX0qKYc-KQCvb2mehi-42" value="Windows10" style="text;html=1;align=center;verticalAlign=middle;resizable=0;points=[];autosize=1;strokeColor=none;fillColor=none;" vertex="1" parent="1">
          <mxGeometry x="495" y="460" width="90" height="30" as="geometry" />
        </mxCell>
        <mxCell id="OVtX0qKYc-KQCvb2mehi-43" value="Firefox" style="text;html=1;align=center;verticalAlign=middle;resizable=0;points=[];autosize=1;strokeColor=none;fillColor=none;" vertex="1" parent="1">
          <mxGeometry x="-226" y="450" width="60" height="30" as="geometry" />
        </mxCell>
        <mxCell id="OVtX0qKYc-KQCvb2mehi-44" value="Firefox" style="text;html=1;align=center;verticalAlign=middle;resizable=0;points=[];autosize=1;strokeColor=none;fillColor=none;" vertex="1" parent="1">
          <mxGeometry x="1044" y="450" width="60" height="30" as="geometry" />
        </mxCell>
        <mxCell id="OVtX0qKYc-KQCvb2mehi-46" value="&lt;div&gt;Servidor DHCP&lt;/div&gt;&lt;div&gt;Pandora FMS&lt;br&gt;&lt;/div&gt;" style="text;html=1;align=center;verticalAlign=middle;resizable=0;points=[];autosize=1;strokeColor=none;fillColor=none;" vertex="1" parent="1">
          <mxGeometry x="377" y="255" width="110" height="40" as="geometry" />
        </mxCell>
        <mxCell id="OVtX0qKYc-KQCvb2mehi-47" value="&lt;div&gt;Servidor web&lt;/div&gt;&lt;div&gt;(pÃ¡gina web creada por mi)&lt;br&gt;&lt;/div&gt;" style="text;html=1;align=center;verticalAlign=middle;resizable=0;points=[];autosize=1;strokeColor=none;fillColor=none;" vertex="1" parent="1">
          <mxGeometry x="55" y="545" width="170" height="40" as="geometry" />
        </mxCell>
        <mxCell id="OVtX0qKYc-KQCvb2mehi-48" value="&lt;div&gt;Servidor MySQL&lt;/div&gt;&lt;div&gt;(base de datos creada por mi)&lt;/div&gt;" style="text;html=1;align=center;verticalAlign=middle;resizable=0;points=[];autosize=1;strokeColor=none;fillColor=none;" vertex="1" parent="1">
          <mxGeometry x="620" y="545" width="180" height="40" as="geometry" />
        </mxCell>
        <mxCell id="OVtX0qKYc-KQCvb2mehi-35" value="&lt;div&gt;Text&lt;/div&gt;" style="text;html=1;align=center;verticalAlign=middle;resizable=0;points=[];autosize=1;strokeColor=none;fillColor=none;" vertex="1" parent="1">
          <mxGeometry x="-370" y="45" width="50" height="30" as="geometry" />
        </mxCell>
        <mxCell id="OVtX0qKYc-KQCvb2mehi-49" value="&lt;div&gt;Servicio de archivos&lt;/div&gt;&lt;div&gt;(Carpetas compartidas)&lt;br&gt;&lt;/div&gt;" style="text;html=1;align=center;verticalAlign=middle;resizable=0;points=[];autosize=1;strokeColor=none;fillColor=none;" vertex="1" parent="1">
          <mxGeometry x="239" y="545" width="150" height="40" as="geometry" />
        </mxCell>
        <mxCell id="OVtX0qKYc-KQCvb2mehi-50" value="&lt;div&gt;Servicio de archivos&lt;/div&gt;&lt;div&gt;(Carpetas compartidas)&lt;br&gt;&lt;/div&gt;" style="text;html=1;align=center;verticalAlign=middle;resizable=0;points=[];autosize=1;strokeColor=none;fillColor=none;" vertex="1" parent="1">
          <mxGeometry x="465" y="545" width="150" height="40" as="geometry" />
        </mxCell>
        <mxCell id="OVtX0qKYc-KQCvb2mehi-51" value="&lt;div&gt;IP asignada&lt;br&gt;&lt;/div&gt;" style="text;html=1;align=center;verticalAlign=middle;resizable=0;points=[];autosize=1;strokeColor=none;fillColor=none;" vertex="1" parent="1">
          <mxGeometry x="95" y="500" width="90" height="30" as="geometry" />
        </mxCell>
        <mxCell id="OVtX0qKYc-KQCvb2mehi-53" value="&lt;div&gt;IP asignada&lt;br&gt;&lt;/div&gt;" style="text;html=1;align=center;verticalAlign=middle;resizable=0;points=[];autosize=1;strokeColor=none;fillColor=none;" vertex="1" parent="1">
          <mxGeometry x="665" y="500" width="90" height="30" as="geometry" />
        </mxCell>
        <mxCell id="OVtX0qKYc-KQCvb2mehi-54" value="&lt;div&gt;IP asignada&lt;br&gt;&lt;/div&gt;" style="text;html=1;align=center;verticalAlign=middle;resizable=0;points=[];autosize=1;strokeColor=none;fillColor=none;" vertex="1" parent="1">
          <mxGeometry x="495" y="500" width="90" height="30" as="geometry" />
        </mxCell>
        <mxCell id="OVtX0qKYc-KQCvb2mehi-55" value="&lt;div&gt;IP asignada&lt;br&gt;&lt;/div&gt;" style="text;html=1;align=center;verticalAlign=middle;resizable=0;points=[];autosize=1;strokeColor=none;fillColor=none;" vertex="1" parent="1">
          <mxGeometry x="269" y="500" width="90" height="30" as="geometry" />
        </mxCell>
        <mxCell id="OVtX0qKYc-KQCvb2mehi-56" value="&lt;div&gt;DHCP&lt;/div&gt;" style="text;html=1;align=center;verticalAlign=middle;resizable=0;points=[];autosize=1;strokeColor=none;fillColor=none;" vertex="1" parent="1">
          <mxGeometry x="-55" y="500" width="60" height="30" as="geometry" />
        </mxCell>
        <mxCell id="OVtX0qKYc-KQCvb2mehi-57" value="&lt;div&gt;DHCP&lt;/div&gt;" style="text;html=1;align=center;verticalAlign=middle;resizable=0;points=[];autosize=1;strokeColor=none;fillColor=none;" vertex="1" parent="1">
          <mxGeometry x="855" y="500" width="60" height="30" as="geometry" />
        </mxCell>
        <mxCell id="OVtX0qKYc-KQCvb2mehi-58" value="&lt;div&gt;DHCP&lt;/div&gt;" style="text;html=1;align=center;verticalAlign=middle;resizable=0;points=[];autosize=1;strokeColor=none;fillColor=none;" vertex="1" parent="1">
          <mxGeometry x="-226" y="500" width="60" height="30" as="geometry" />
        </mxCell>
        <mxCell id="OVtX0qKYc-KQCvb2mehi-59" value="&lt;div&gt;DHCP&lt;/div&gt;" style="text;html=1;align=center;verticalAlign=middle;resizable=0;points=[];autosize=1;strokeColor=none;fillColor=none;" vertex="1" parent="1">
          <mxGeometry x="1044" y="500" width="60" height="30" as="geometry" />
        </mxCell>
        <mxCell id="OVtX0qKYc-KQCvb2mehi-60" value="&lt;div&gt;NAT&lt;/div&gt;" style="text;html=1;align=center;verticalAlign=middle;resizable=0;points=[];autosize=1;strokeColor=none;fillColor=none;" vertex="1" parent="1">
          <mxGeometry x="407" y="45" width="50" height="30" as="geometry" />
        </mxCell>
      </root>
    </mxGraphModel>
  </diagram>
</mxfile>
